<svg width="187" height="59" viewBox="0 0 187 59" fill="none" xmlns="http://www.w3.org/2000/svg">
<rect x="1.5" y="1.5" width="184" height="55.0833" stroke="black" stroke-width="3"/>
<path d="M63.1318 8.96301V24.583H59.5238V18.181H53.2978V24.583H49.6898V8.96301H53.2978V15.013H59.5238V8.96301H63.1318ZM72.906 24.803C71.586 24.803 70.464 24.5243 69.54 23.967C68.6306 23.4097 67.934 22.6763 67.45 21.767C66.966 20.8577 66.724 19.875 66.724 18.819C66.724 17.7483 66.966 16.7583 67.45 15.849C67.934 14.9397 68.638 14.2063 69.562 13.649C70.486 13.0917 71.6006 12.813 72.906 12.813C74.2113 12.813 75.326 13.0917 76.25 13.649C77.174 14.2063 77.878 14.9397 78.362 15.849C78.846 16.7583 79.088 17.7483 79.088 18.819C79.088 19.875 78.846 20.8577 78.362 21.767C77.878 22.6763 77.174 23.4097 76.25 23.967C75.326 24.5243 74.2113 24.803 72.906 24.803ZM70.332 18.819C70.332 19.7137 70.574 20.4397 71.058 20.997C71.5566 21.5543 72.1726 21.833 72.906 21.833C73.6246 21.833 74.226 21.5543 74.71 20.997C75.2086 20.4397 75.458 19.7137 75.458 18.819C75.458 17.9243 75.2086 17.1983 74.71 16.641C74.226 16.0837 73.6246 15.805 72.906 15.805C72.1726 15.805 71.5566 16.0837 71.058 16.641C70.574 17.1983 70.332 17.9243 70.332 18.819ZM88.0937 24.803C86.7737 24.803 85.6517 24.5243 84.7277 23.967C83.8184 23.4097 83.1217 22.6763 82.6377 21.767C82.1537 20.8577 81.9117 19.875 81.9117 18.819C81.9117 17.7483 82.1537 16.7583 82.6377 15.849C83.1217 14.9397 83.8257 14.2063 84.7497 13.649C85.6737 13.0917 86.7884 12.813 88.0937 12.813C89.399 12.813 90.5137 13.0917 91.4377 13.649C92.3617 14.2063 93.0657 14.9397 93.5497 15.849C94.0337 16.7583 94.2757 17.7483 94.2757 18.819C94.2757 19.875 94.0337 20.8577 93.5497 21.767C93.0657 22.6763 92.3617 23.4097 91.4377 23.967C90.5137 24.5243 89.399 24.803 88.0937 24.803ZM85.5197 18.819C85.5197 19.7137 85.7617 20.4397 86.2457 20.997C86.7444 21.5543 87.3604 21.833 88.0937 21.833C88.8124 21.833 89.4137 21.5543 89.8977 20.997C90.3964 20.4397 90.6457 19.7137 90.6457 18.819C90.6457 17.9243 90.3964 17.1983 89.8977 16.641C89.4137 16.0837 88.8124 15.805 88.0937 15.805C87.3604 15.805 86.7444 16.0837 86.2457 16.641C85.7617 17.1983 85.5197 17.9243 85.5197 18.819ZM105.547 24.583L102.533 19.963L101.301 21.217V24.583H97.7814V8.52301H101.301V17.807L105.217 13.033H108.935L104.777 18.005L109.287 24.583H105.547ZM111.169 21.129C111.169 20.3663 111.382 19.699 111.807 19.127C112.232 18.555 112.819 18.1077 113.567 17.785C114.315 17.4477 115.173 17.279 116.141 17.279C116.61 17.279 117.072 17.323 117.527 17.411C117.982 17.4843 118.378 17.5943 118.715 17.741V17.235C118.715 15.9297 117.945 15.277 116.405 15.277C115.76 15.277 115.151 15.387 114.579 15.607C114.022 15.827 113.428 16.1423 112.797 16.553L111.741 14.309C113.266 13.3117 114.938 12.813 116.757 12.813C118.488 12.813 119.83 13.231 120.783 14.067C121.751 14.8883 122.235 16.0837 122.235 17.653V20.667C122.235 21.019 122.286 21.2683 122.389 21.415C122.506 21.5617 122.704 21.6423 122.983 21.657V24.583C122.675 24.6417 122.396 24.6857 122.147 24.715C121.898 24.7443 121.678 24.759 121.487 24.759C120.827 24.759 120.321 24.627 119.969 24.363C119.632 24.099 119.419 23.7397 119.331 23.285L119.265 22.779C118.752 23.439 118.136 23.945 117.417 24.297C116.698 24.6343 115.958 24.803 115.195 24.803C114.432 24.803 113.743 24.6417 113.127 24.319C112.526 23.9963 112.049 23.5637 111.697 23.021C111.345 22.4637 111.169 21.833 111.169 21.129ZM118.165 21.569C118.532 21.2757 118.715 20.975 118.715 20.667V19.633C118.407 19.5157 118.07 19.4277 117.703 19.369C117.351 19.2957 117.028 19.259 116.735 19.259C116.075 19.259 115.532 19.4057 115.107 19.699C114.696 19.9923 114.491 20.3663 114.491 20.821C114.491 21.217 114.645 21.5617 114.953 21.855C115.276 22.1337 115.701 22.273 116.229 22.273C116.581 22.273 116.933 22.207 117.285 22.075C117.637 21.943 117.93 21.7743 118.165 21.569ZM137.678 24.583H134.158V18.093C134.158 17.345 134.004 16.795 133.696 16.443C133.402 16.091 133.006 15.915 132.508 15.915C132.097 15.915 131.635 16.1057 131.122 16.487C130.623 16.8537 130.271 17.345 130.066 17.961V24.583H126.546V8.52301H130.066V14.969C130.476 14.2797 131.034 13.7517 131.738 13.385C132.442 13.0037 133.212 12.813 134.048 12.813C134.825 12.813 135.456 12.945 135.94 13.209C136.424 13.473 136.79 13.825 137.04 14.265C137.289 14.6903 137.458 15.1597 137.546 15.673C137.634 16.1863 137.678 16.6923 137.678 17.191V24.583ZM75.7438 45.655L76.5918 44.439C77.1144 44.7697 77.5731 45.0043 77.9678 45.143C78.3624 45.2817 78.7624 45.351 79.1678 45.351C79.6478 45.351 80.0371 45.255 80.3358 45.063C80.6344 44.8603 80.7838 44.599 80.7838 44.279C80.7838 44.0337 80.6931 43.8417 80.5118 43.703C80.3411 43.5537 80.0638 43.4417 79.6798 43.367L78.2558 43.127C77.4878 42.9883 76.9064 42.7377 76.5118 42.375C76.1278 42.0017 75.9358 41.5163 75.9358 40.919C75.9358 40.1723 76.2184 39.575 76.7838 39.127C77.3598 38.6683 78.1118 38.439 79.0398 38.439C79.5944 38.439 80.1278 38.519 80.6398 38.679C81.1624 38.8283 81.6798 39.0683 82.1918 39.399L81.3438 40.583C80.9278 40.3163 80.5224 40.1243 80.1278 40.007C79.7331 39.879 79.3331 39.815 78.9278 39.815C78.5118 39.815 78.1758 39.9003 77.9198 40.071C77.6744 40.231 77.5518 40.4603 77.5518 40.759C77.5518 41.015 77.6318 41.207 77.7918 41.335C77.9624 41.463 78.2611 41.5643 78.6878 41.639L80.0958 41.895C80.8958 42.0443 81.4878 42.3057 81.8718 42.679C82.2664 43.0523 82.4638 43.5377 82.4638 44.135C82.4638 44.4977 82.3784 44.839 82.2078 45.159C82.0478 45.479 81.8184 45.7563 81.5198 45.991C81.2318 46.2257 80.8851 46.4123 80.4798 46.551C80.0851 46.679 79.6584 46.743 79.1998 46.743C78.5064 46.743 77.8611 46.6523 77.2638 46.471C76.6771 46.279 76.1704 46.007 75.7438 45.655ZM84.12 46.583V35.143L85.928 34.839V39.879C86.2267 39.4097 86.5894 39.0523 87.016 38.807C87.4534 38.5617 87.9387 38.439 88.472 38.439C89.2827 38.439 89.944 38.711 90.456 39.255C90.9787 39.7883 91.24 40.471 91.24 41.303V46.583H89.432V41.815C89.432 41.239 89.272 40.775 88.952 40.423C88.632 40.071 88.2054 39.895 87.672 39.895C87.3094 39.895 86.9787 39.9803 86.68 40.151C86.392 40.311 86.1414 40.5457 85.928 40.855V46.583H84.12ZM93.0645 42.583C93.0645 41.9963 93.1659 41.4523 93.3685 40.951C93.5819 40.439 93.8645 40.0017 94.2165 39.639C94.5792 39.2657 95.0059 38.9723 95.4965 38.759C95.9979 38.5457 96.5312 38.439 97.0965 38.439C97.6725 38.439 98.2059 38.5457 98.6965 38.759C99.1872 38.9723 99.6139 39.2657 99.9765 39.639C100.339 40.0017 100.622 40.439 100.825 40.951C101.027 41.4523 101.129 41.9963 101.129 42.583C101.129 43.1697 101.022 43.719 100.809 44.231C100.606 44.743 100.323 45.1857 99.9605 45.559C99.6085 45.9217 99.1819 46.2097 98.6805 46.423C98.1899 46.6363 97.6619 46.743 97.0965 46.743C96.5312 46.743 95.9979 46.6363 95.4965 46.423C95.0059 46.2097 94.5792 45.9163 94.2165 45.543C93.8645 45.1697 93.5819 44.7323 93.3685 44.231C93.1659 43.719 93.0645 43.1697 93.0645 42.583ZM97.0965 45.175C97.7472 45.175 98.2805 44.9297 98.6965 44.439C99.1232 43.9483 99.3365 43.335 99.3365 42.599C99.3365 41.8417 99.1232 41.2177 98.6965 40.727C98.2699 40.2363 97.7365 39.991 97.0965 39.991C96.4459 39.991 95.9072 40.2363 95.4805 40.727C95.0645 41.2177 94.8565 41.8417 94.8565 42.599C94.8565 43.3457 95.0645 43.9643 95.4805 44.455C95.9072 44.935 96.4459 45.175 97.0965 45.175ZM102.995 49.975V38.567H104.771V39.719C105.048 39.335 105.4 39.0363 105.827 38.823C106.264 38.6097 106.744 38.503 107.267 38.503C107.768 38.503 108.243 38.6097 108.691 38.823C109.139 39.0363 109.523 39.3297 109.843 39.703C110.174 40.0657 110.43 40.4977 110.611 40.999C110.803 41.4897 110.899 42.0177 110.899 42.583C110.899 43.1483 110.803 43.6817 110.611 44.183C110.419 44.6843 110.152 45.1163 109.811 45.479C109.47 45.8417 109.07 46.1297 108.611 46.343C108.152 46.5563 107.662 46.663 107.139 46.663C106.67 46.663 106.232 46.5723 105.827 46.391C105.432 46.2097 105.091 45.9537 104.803 45.623V49.975H102.995ZM106.723 40.023C106.328 40.023 105.966 40.0977 105.635 40.247C105.315 40.3963 105.038 40.6203 104.803 40.919V44.263C105.038 44.5403 105.32 44.759 105.651 44.919C105.982 45.0683 106.339 45.143 106.723 45.143C107.406 45.143 107.971 44.903 108.419 44.423C108.878 43.9323 109.107 43.319 109.107 42.583C109.107 41.8577 108.878 41.2497 108.419 40.759C107.96 40.2683 107.395 40.023 106.723 40.023Z" fill="black"/>
</svg>
