<svg width="187" height="59" viewBox="0 0 187 59" fill="none" xmlns="http://www.w3.org/2000/svg">
<rect x="1.5" y="1.5" width="184" height="55.0833" stroke="black" stroke-width="3"/>
<path d="M63.1318 8.96301V24.583H59.5238V18.181H53.2978V24.583H49.6898V8.96301H53.2978V15.013H59.5238V8.96301H63.1318ZM72.906 24.803C71.586 24.803 70.464 24.5243 69.54 23.967C68.6306 23.4097 67.934 22.6763 67.45 21.767C66.966 20.8577 66.724 19.875 66.724 18.819C66.724 17.7483 66.966 16.7583 67.45 15.849C67.934 14.9397 68.638 14.2063 69.562 13.649C70.486 13.0917 71.6006 12.813 72.906 12.813C74.2113 12.813 75.326 13.0917 76.25 13.649C77.174 14.2063 77.878 14.9397 78.362 15.849C78.846 16.7583 79.088 17.7483 79.088 18.819C79.088 19.875 78.846 20.8577 78.362 21.767C77.878 22.6763 77.174 23.4097 76.25 23.967C75.326 24.5243 74.2113 24.803 72.906 24.803ZM70.332 18.819C70.332 19.7137 70.574 20.4397 71.058 20.997C71.5566 21.5543 72.1726 21.833 72.906 21.833C73.6246 21.833 74.226 21.5543 74.71 20.997C75.2086 20.4397 75.458 19.7137 75.458 18.819C75.458 17.9243 75.2086 17.1983 74.71 16.641C74.226 16.0837 73.6246 15.805 72.906 15.805C72.1726 15.805 71.5566 16.0837 71.058 16.641C70.574 17.1983 70.332 17.9243 70.332 18.819ZM88.0937 24.803C86.7737 24.803 85.6517 24.5243 84.7277 23.967C83.8184 23.4097 83.1217 22.6763 82.6377 21.767C82.1537 20.8577 81.9117 19.875 81.9117 18.819C81.9117 17.7483 82.1537 16.7583 82.6377 15.849C83.1217 14.9397 83.8257 14.2063 84.7497 13.649C85.6737 13.0917 86.7884 12.813 88.0937 12.813C89.399 12.813 90.5137 13.0917 91.4377 13.649C92.3617 14.2063 93.0657 14.9397 93.5497 15.849C94.0337 16.7583 94.2757 17.7483 94.2757 18.819C94.2757 19.875 94.0337 20.8577 93.5497 21.767C93.0657 22.6763 92.3617 23.4097 91.4377 23.967C90.5137 24.5243 89.399 24.803 88.0937 24.803ZM85.5197 18.819C85.5197 19.7137 85.7617 20.4397 86.2457 20.997C86.7444 21.5543 87.3604 21.833 88.0937 21.833C88.8124 21.833 89.4137 21.5543 89.8977 20.997C90.3964 20.4397 90.6457 19.7137 90.6457 18.819C90.6457 17.9243 90.3964 17.1983 89.8977 16.641C89.4137 16.0837 88.8124 15.805 88.0937 15.805C87.3604 15.805 86.7444 16.0837 86.2457 16.641C85.7617 17.1983 85.5197 17.9243 85.5197 18.819ZM105.547 24.583L102.533 19.963L101.301 21.217V24.583H97.7814V8.52301H101.301V17.807L105.217 13.033H108.935L104.777 18.005L109.287 24.583H105.547ZM111.169 21.129C111.169 20.3663 111.382 19.699 111.807 19.127C112.232 18.555 112.819 18.1077 113.567 17.785C114.315 17.4477 115.173 17.279 116.141 17.279C116.61 17.279 117.072 17.323 117.527 17.411C117.982 17.4843 118.378 17.5943 118.715 17.741V17.235C118.715 15.9297 117.945 15.277 116.405 15.277C115.76 15.277 115.151 15.387 114.579 15.607C114.022 15.827 113.428 16.1423 112.797 16.553L111.741 14.309C113.266 13.3117 114.938 12.813 116.757 12.813C118.488 12.813 119.83 13.231 120.783 14.067C121.751 14.8883 122.235 16.0837 122.235 17.653V20.667C122.235 21.019 122.286 21.2683 122.389 21.415C122.506 21.5617 122.704 21.6423 122.983 21.657V24.583C122.675 24.6417 122.396 24.6857 122.147 24.715C121.898 24.7443 121.678 24.759 121.487 24.759C120.827 24.759 120.321 24.627 119.969 24.363C119.632 24.099 119.419 23.7397 119.331 23.285L119.265 22.779C118.752 23.439 118.136 23.945 117.417 24.297C116.698 24.6343 115.958 24.803 115.195 24.803C114.432 24.803 113.743 24.6417 113.127 24.319C112.526 23.9963 112.049 23.5637 111.697 23.021C111.345 22.4637 111.169 21.833 111.169 21.129ZM118.165 21.569C118.532 21.2757 118.715 20.975 118.715 20.667V19.633C118.407 19.5157 118.07 19.4277 117.703 19.369C117.351 19.2957 117.028 19.259 116.735 19.259C116.075 19.259 115.532 19.4057 115.107 19.699C114.696 19.9923 114.491 20.3663 114.491 20.821C114.491 21.217 114.645 21.5617 114.953 21.855C115.276 22.1337 115.701 22.273 116.229 22.273C116.581 22.273 116.933 22.207 117.285 22.075C117.637 21.943 117.93 21.7743 118.165 21.569ZM137.678 24.583H134.158V18.093C134.158 17.345 134.004 16.795 133.696 16.443C133.402 16.091 133.006 15.915 132.508 15.915C132.097 15.915 131.635 16.1057 131.122 16.487C130.623 16.8537 130.271 17.345 130.066 17.961V24.583H126.546V8.52301H130.066V14.969C130.476 14.2797 131.034 13.7517 131.738 13.385C132.442 13.0037 133.212 12.813 134.048 12.813C134.825 12.813 135.456 12.945 135.94 13.209C136.424 13.473 136.79 13.825 137.04 14.265C137.289 14.6903 137.458 15.1597 137.546 15.673C137.634 16.1863 137.678 16.6923 137.678 17.191V24.583ZM74.5797 45.655L75.4277 44.439C75.9504 44.7697 76.4091 45.0043 76.8037 45.143C77.1984 45.2817 77.5984 45.351 78.0037 45.351C78.4837 45.351 78.8731 45.255 79.1717 45.063C79.4704 44.8603 79.6197 44.599 79.6197 44.279C79.6197 44.0337 79.5291 43.8417 79.3477 43.703C79.1771 43.5537 78.8997 43.4417 78.5157 43.367L77.0917 43.127C76.3237 42.9883 75.7424 42.7377 75.3477 42.375C74.9637 42.0017 74.7717 41.5163 74.7717 40.919C74.7717 40.1723 75.0544 39.575 75.6197 39.127C76.1957 38.6683 76.9477 38.439 77.8757 38.439C78.4304 38.439 78.9637 38.519 79.4757 38.679C79.9984 38.8283 80.5157 39.0683 81.0277 39.399L80.1797 40.583C79.7637 40.3163 79.3584 40.1243 78.9637 40.007C78.5691 39.879 78.1691 39.815 77.7637 39.815C77.3477 39.815 77.0117 39.9003 76.7557 40.071C76.5104 40.231 76.3877 40.4603 76.3877 40.759C76.3877 41.015 76.4677 41.207 76.6277 41.335C76.7984 41.463 77.0971 41.5643 77.5237 41.639L78.9317 41.895C79.7317 42.0443 80.3237 42.3057 80.7077 42.679C81.1024 43.0523 81.2997 43.5377 81.2997 44.135C81.2997 44.4977 81.2144 44.839 81.0437 45.159C80.8837 45.479 80.6544 45.7563 80.3557 45.991C80.0677 46.2257 79.7211 46.4123 79.3157 46.551C78.9211 46.679 78.4944 46.743 78.0357 46.743C77.3424 46.743 76.6971 46.6523 76.0997 46.471C75.5131 46.279 75.0064 46.007 74.5797 45.655ZM83.7917 44.471V40.007H82.1757V38.567H83.7917V36.359L85.5997 35.975V38.567H87.8397V40.007H85.5997V44.071C85.5997 44.4657 85.6851 44.7483 85.8557 44.919C86.0264 45.079 86.3144 45.159 86.7197 45.159C86.9011 45.159 87.0664 45.1483 87.2157 45.127C87.3757 45.095 87.5731 45.0417 87.8077 44.967V46.487C87.5731 46.5617 87.3117 46.615 87.0237 46.647C86.7464 46.6897 86.4904 46.711 86.2557 46.711C85.4557 46.711 84.8424 46.5243 84.4157 46.151C83.9997 45.767 83.7917 45.207 83.7917 44.471ZM88.9473 42.583C88.9473 41.9963 89.0487 41.4523 89.2513 40.951C89.4647 40.439 89.7473 40.0017 90.0993 39.639C90.462 39.2657 90.8887 38.9723 91.3793 38.759C91.8807 38.5457 92.414 38.439 92.9793 38.439C93.5553 38.439 94.0887 38.5457 94.5793 38.759C95.07 38.9723 95.4967 39.2657 95.8593 39.639C96.222 40.0017 96.5047 40.439 96.7073 40.951C96.91 41.4523 97.0113 41.9963 97.0113 42.583C97.0113 43.1697 96.9047 43.719 96.6913 44.231C96.4887 44.743 96.206 45.1857 95.8433 45.559C95.4913 45.9217 95.0647 46.2097 94.5633 46.423C94.0727 46.6363 93.5447 46.743 92.9793 46.743C92.414 46.743 91.8807 46.6363 91.3793 46.423C90.8887 46.2097 90.462 45.9163 90.0993 45.543C89.7473 45.1697 89.4647 44.7323 89.2513 44.231C89.0487 43.719 88.9473 43.1697 88.9473 42.583ZM92.9793 45.175C93.63 45.175 94.1633 44.9297 94.5793 44.439C95.006 43.9483 95.2193 43.335 95.2193 42.599C95.2193 41.8417 95.006 41.2177 94.5793 40.727C94.1527 40.2363 93.6193 39.991 92.9793 39.991C92.3287 39.991 91.79 40.2363 91.3633 40.727C90.9473 41.2177 90.7393 41.8417 90.7393 42.599C90.7393 43.3457 90.9473 43.9643 91.3633 44.455C91.79 44.935 92.3287 45.175 92.9793 45.175ZM98.8778 46.583V38.567H100.686V40.311C100.899 39.703 101.193 39.239 101.566 38.919C101.95 38.5883 102.393 38.423 102.894 38.423C103.043 38.4337 103.177 38.4497 103.294 38.471C103.411 38.4923 103.539 38.5297 103.678 38.583V40.167C103.539 40.103 103.379 40.055 103.198 40.023C103.027 39.991 102.857 39.975 102.686 39.975C102.259 39.975 101.87 40.0923 101.518 40.327C101.166 40.5617 100.889 40.887 100.686 41.303V46.583H98.8778ZM111.664 45.559C111.174 45.9643 110.672 46.263 110.16 46.455C109.659 46.647 109.099 46.743 108.48 46.743C107.915 46.743 107.382 46.6363 106.88 46.423C106.379 46.2097 105.947 45.9163 105.584 45.543C105.222 45.1697 104.934 44.727 104.72 44.215C104.507 43.703 104.4 43.159 104.4 42.583C104.4 41.9963 104.496 41.4523 104.688 40.951C104.891 40.439 105.163 40.0017 105.504 39.639C105.856 39.2657 106.272 38.9723 106.752 38.759C107.232 38.5457 107.75 38.439 108.304 38.439C108.848 38.439 109.35 38.5457 109.808 38.759C110.278 38.9617 110.678 39.2443 111.008 39.607C111.35 39.9697 111.616 40.407 111.808 40.919C112 41.4203 112.096 41.9697 112.096 42.567V43.015H106.176C106.262 43.6443 106.528 44.167 106.976 44.583C107.435 44.999 107.968 45.207 108.576 45.207C108.95 45.207 109.302 45.143 109.632 45.015C109.974 44.8763 110.256 44.6897 110.48 44.455L111.664 45.559ZM108.288 39.911C107.755 39.911 107.302 40.0923 106.928 40.455C106.555 40.8177 106.315 41.303 106.208 41.911H110.384C110.278 41.3243 110.032 40.8443 109.648 40.471C109.275 40.0977 108.822 39.911 108.288 39.911Z" fill="black"/>
</svg>
